<svg xmlns="http://www.w3.org/2000/svg" viewBox="0 0 188 57"><path fill="#EFBC00" d="M43.108 30.341a4.463 4.463 0 00-2.759-.756h-6.687v6.734h6.612a3.807 3.807 0 002.818-1.01 3.497 3.497 0 001.005-2.567 2.835 2.835 0 00-.99-2.4zM43.389 22.608a2.486 2.486 0 00-.804-2.073c-.543-.429-1.422-.645-2.648-.645h-6.275v5.432h6.572c2.106 0 3.158-.904 3.155-2.714z"/><path fill="#EFBC00" d="M52.588 0H4.185c-1.11 0-2.174.443-2.96 1.23A4.21 4.21 0 000 4.203v48.596a4.21 4.21 0 001.226 2.971A4.177 4.177 0 004.186 57h48.402c1.11 0 2.175-.443 2.96-1.23a4.21 4.21 0 001.225-2.972V4.202a4.21 4.21 0 00-1.226-2.971A4.177 4.177 0 0052.588 0zm-5.702 38.578c-1.528 1.345-3.872 2.018-7.034 2.018H28.638V19.88H17.273c-2.954 0-4.433 1.018-4.436 3.052a2.251 2.251 0 00.924 1.831 5.104 5.104 0 002.95 1.226 40.75 40.75 0 014.26.383c1.118.195 2.204.547 3.226 1.045a7.744 7.744 0 011.567.928c.485.345.904.776 1.236 1.27.361.559.634 1.17.809 1.812a9.47 9.47 0 01.301 2.567 6.629 6.629 0 01-.753 3.203 7.15 7.15 0 01-2.01 2.361 9.284 9.284 0 01-3.015 1.468c-1.183.344-2.41.514-3.642.504-3.63 0-6.36-.704-8.19-2.113-1.828-1.41-2.796-3.494-2.903-6.255h5.024a3.663 3.663 0 001.557 3.026 6.292 6.292 0 003.824 1.14c1.654 0 2.907-.302 3.758-.907a2.842 2.842 0 001.276-2.452 3.903 3.903 0 00-.15-1.11 2.02 2.02 0 00-.584-.923 3.868 3.868 0 00-1.2-.752 11.133 11.133 0 00-1.955-.585c-1.904-.403-3.627-.176-5.024-.554a11.466 11.466 0 01-3.437-1.549 5.744 5.744 0 01-2.01-2.245 7.674 7.674 0 01-.637-3.354A7.486 7.486 0 018.6 19.99a6.212 6.212 0 011.759-2.335 8.604 8.604 0 012.874-1.584c1.3-.412 2.657-.61 4.02-.585 1.345 0 14.614.075 18.156.09h5.502c2.452 0 4.317.61 5.597 1.827 1.28 1.217 1.917 2.883 1.914 4.998a4.983 4.983 0 01-.864 2.886 4.75 4.75 0 01-2.175 1.79c.53.2 1.035.458 1.507.772.472.325.88.735 1.2 1.21.349.526.613 1.103.784 1.71.215.767.316 1.56.302 2.357a6.895 6.895 0 01-2.291 5.452z"/><path fill="#fff" d="M77.84 23.935a8.623 8.623 0 01-3.14-1.604l1.165-2.659a9.37 9.37 0 002.773 1.463c1.064.37 2.181.557 3.306.555 1.367 0 2.387-.218 3.06-.655a2.014 2.014 0 001.005-1.74 1.686 1.686 0 00-.563-1.307 3.934 3.934 0 00-1.432-.802c-.578-.197-1.366-.414-2.361-.661-1.154-.263-2.29-.6-3.401-1.009a5.667 5.667 0 01-2.231-1.569 4.228 4.228 0 01-.925-2.85c-.008-.99.279-1.96.824-2.784a5.586 5.586 0 012.512-1.988c1.287-.539 2.671-.803 4.065-.776 1.117 0 2.23.142 3.31.423a9.281 9.281 0 012.81 1.211l-1.08 2.663a10.625 10.625 0 00-2.513-1.08 9.341 9.341 0 00-2.547-.367c-1.347 0-2.351.227-3.015.686a2.094 2.094 0 00-1.004 1.816 1.64 1.64 0 00.562 1.29c.42.36.907.629 1.432.793.578.191 1.367.414 2.362.66a24.93 24.93 0 013.36 1.01 5.803 5.803 0 012.252 1.558c.651.801.983 1.817.929 2.85a4.882 4.882 0 01-.824 2.764 5.626 5.626 0 01-2.512 1.978c-1.3.527-2.694.778-4.095.736a13.964 13.964 0 01-4.084-.605zM99.72 23.516a3.98 3.98 0 01-1.407.712c-.567.16-1.154.24-1.743.237-1.544 0-2.735-.406-3.572-1.216-.838-.81-1.258-1.987-1.261-3.531v-6.774H89.43V10.31h2.306V7.097h3.285v3.213h3.753v2.634h-3.753v6.698a2.23 2.23 0 00.503 1.564 1.859 1.859 0 001.442.545 2.906 2.906 0 001.834-.565l.919 2.33zM111.361 11.536c1.095 1.009 1.643 2.507 1.643 4.495v8.247h-3.1v-1.71a3.789 3.789 0 01-1.718 1.407 6.746 6.746 0 01-2.693.505 6.57 6.57 0 01-2.753-.54 4.313 4.313 0 01-1.829-1.513 3.827 3.827 0 01-.643-2.174 3.756 3.756 0 011.406-3.027c.935-.762 2.412-1.145 4.422-1.145h3.627v-.212a2.874 2.874 0 00-.884-2.265 3.774 3.774 0 00-2.608-.792c-.789 0-1.574.124-2.326.369a5.778 5.778 0 00-1.929 1.009l-1.286-2.397a7.844 7.844 0 012.653-1.29 11.58 11.58 0 013.28-.45c2.067-.003 3.646.491 4.738 1.483zm-3.014 9.963a3.09 3.09 0 001.356-1.62v-1.634h-3.386c-1.894 0-2.839.62-2.839 1.871a1.683 1.683 0 00.709 1.423 3.228 3.228 0 001.969.504 4.209 4.209 0 002.211-.544h-.02zM128.252 11.602c1.069 1.039 1.603 2.576 1.603 4.61v8.071h-3.281v-7.637a3.947 3.947 0 00-.869-2.78 3.174 3.174 0 00-2.467-.938 3.778 3.778 0 00-2.858 1.095 4.363 4.363 0 00-1.051 3.127v7.128h-3.27V10.205h3.12v1.82a5.111 5.111 0 012.05-1.478 7.352 7.352 0 012.783-.504 5.815 5.815 0 014.24 1.559zM146.736 4.721v19.557h-3.15v-1.816a5.096 5.096 0 01-2.009 1.513 6.702 6.702 0 01-2.638.505 7.331 7.331 0 01-3.638-.898 6.418 6.418 0 01-2.512-2.522 7.641 7.641 0 01-.919-3.783 7.55 7.55 0 01.919-3.769 6.486 6.486 0 012.512-2.522 7.38 7.38 0 013.638-.892c.872-.011 1.737.15 2.547.474a5.027 5.027 0 011.965 1.422V4.721h3.285zm-5.28 16.384a3.906 3.906 0 001.507-1.543 4.745 4.745 0 00.553-2.32 4.757 4.757 0 00-.553-2.321 3.867 3.867 0 00-1.507-1.513 4.458 4.458 0 00-4.25 0 3.904 3.904 0 00-1.508 1.513 4.756 4.756 0 00-.552 2.32 4.733 4.733 0 00.552 2.32c.35.646.872 1.18 1.508 1.544a4.455 4.455 0 004.25 0zM159.98 11.536c1.089 1.01 1.635 2.507 1.638 4.495v8.247h-3.095v-1.71a3.835 3.835 0 01-1.723 1.407 6.719 6.719 0 01-2.688.505 6.612 6.612 0 01-2.758-.54 4.272 4.272 0 01-1.824-1.513 3.827 3.827 0 01-.643-2.174 3.731 3.731 0 011.407-3.027c.934-.76 2.408-1.142 4.421-1.145h3.622v-.212a2.87 2.87 0 00-.879-2.265 3.783 3.783 0 00-2.612-.792 7.45 7.45 0 00-2.322.369 5.682 5.682 0 00-1.929 1.009l-1.286-2.396a7.867 7.867 0 012.648-1.292 11.63 11.63 0 013.28-.449c2.067-.003 3.648.491 4.743 1.483zm-3.014 9.963a3.084 3.084 0 001.351-1.62v-1.634h-3.386c-1.889 0-2.834.62-2.834 1.871a1.694 1.694 0 00.709 1.423 3.22 3.22 0 001.969.504 4.222 4.222 0 002.211-.544h-.02zM172.777 10.048v3.133a4.396 4.396 0 00-.764-.076 3.942 3.942 0 00-2.989 1.12 4.465 4.465 0 00-1.08 3.228v6.825h-3.281V10.205h3.145v2.058c.931-1.477 2.587-2.215 4.969-2.215zM188 4.721v19.557h-3.15v-1.816a5.068 5.068 0 01-2.01 1.513 6.66 6.66 0 01-2.637.505 7.323 7.323 0 01-3.633-.898 6.34 6.34 0 01-2.512-2.522 7.642 7.642 0 01-.92-3.783 7.561 7.561 0 01.92-3.769 6.408 6.408 0 012.512-2.522 7.372 7.372 0 013.633-.892 6.606 6.606 0 012.547.474 5.068 5.068 0 011.969 1.422V4.721H188zm-5.275 16.384a3.948 3.948 0 001.507-1.543 4.745 4.745 0 00.553-2.32 4.768 4.768 0 00-.553-2.321 3.895 3.895 0 00-1.507-1.513 4.462 4.462 0 00-4.251 0 3.867 3.867 0 00-1.507 1.513 4.757 4.757 0 00-.553 2.32 4.745 4.745 0 00.553 2.32 3.913 3.913 0 001.507 1.544 4.458 4.458 0 004.251 0zM91.686 44.092c.614.844.93 1.87.895 2.915a4.281 4.281 0 01-1.84 3.703c-1.208.867-2.985 1.303-5.33 1.306h-9.159V33.565h8.606c2.17 0 3.846.425 5.025 1.276a4.102 4.102 0 011.763 3.53 4.634 4.634 0 01-.633 2.427 4.368 4.368 0 01-1.733 1.634 4.853 4.853 0 012.406 1.66zm-12.023-7.839v5.11h4.829a4.864 4.864 0 002.743-.646 2.12 2.12 0 00.96-1.881 2.162 2.162 0 00-.96-1.912 4.902 4.902 0 00-2.743-.646l-4.829-.025zm9.476 10.411c0-1.775-1.321-2.663-3.964-2.663h-5.527v5.327h5.527c2.643 0 3.964-.888 3.964-2.664zM94.912 35.053a1.949 1.949 0 01-.445-2.177c.103-.243.255-.461.445-.643a2.11 2.11 0 011.507-.565 2.165 2.165 0 011.507.54 1.74 1.74 0 01.603 1.357 1.993 1.993 0 01-.588 1.462 2.064 2.064 0 01-1.507.596 2.111 2.111 0 01-1.522-.57zm-.156 2.885h3.28v14.078h-3.28V37.938zM109.613 51.25c-.413.333-.89.575-1.402.71-.569.16-1.158.24-1.748.238-1.538 0-2.727-.404-3.568-1.21-.839-.808-1.261-1.988-1.261-3.532v-6.774h-2.31v-2.638h2.31V34.83h3.281v3.213h3.753v2.638h-3.753v6.694c-.038.568.142 1.129.503 1.568a1.876 1.876 0 001.446.54 2.874 2.874 0 001.834-.555l.915 2.32z"/><path fill="#EFBC00" d="M121.535 42.22a5.062 5.062 0 011.864 4.126 5.732 5.732 0 01-.814 3.027 5.633 5.633 0 01-2.442 2.134 9.122 9.122 0 01-4.019.792 12.793 12.793 0 01-3.803-.57 9.284 9.284 0 01-3.1-1.564l1.442-2.663a7.86 7.86 0 002.456 1.331c.951.33 1.949.5 2.955.505a4.751 4.751 0 002.848-.752 2.608 2.608 0 00.729-3.308 2.59 2.59 0 00-.809-.909c-.744-.479-2.01-.721-3.818-.721h-4.437l.95-10.084h10.787v2.876h-7.903l-.372 4.267h1.758c2.576 0 4.485.505 5.728 1.513zM127.941 51.159a7.557 7.557 0 01-2.733-3.269 12.046 12.046 0 01-1.005-5.1 12.047 12.047 0 011.005-5.1 7.557 7.557 0 012.733-3.268 7.078 7.078 0 013.934-1.13 7.17 7.17 0 013.954 1.12 7.557 7.557 0 012.743 3.269 12.047 12.047 0 011.005 5.1 12.046 12.046 0 01-1.005 5.099 7.557 7.557 0 01-2.743 3.269 7.17 7.17 0 01-3.954 1.12 7.08 7.08 0 01-3.934-1.11zm7.034-3.496c.787-1.09 1.18-2.714 1.18-4.873 0-2.159-.381-3.785-1.145-4.877a3.753 3.753 0 00-6.195 0c-.757 1.09-1.137 2.715-1.14 4.877-.004 2.163.377 3.787 1.14 4.873a3.754 3.754 0 006.195 0h-.035zM144.45 51.159a7.568 7.568 0 01-2.728-3.269 11.983 11.983 0 01-1.005-5.1 11.983 11.983 0 011.005-5.1 7.568 7.568 0 012.728-3.268 7.516 7.516 0 017.888 0 7.5 7.5 0 012.744 3.269 12.061 12.061 0 011.004 5.1 12.06 12.06 0 01-1.004 5.1 7.5 7.5 0 01-2.744 3.268 7.512 7.512 0 01-7.888 0zm7.034-3.496c.757-1.09 1.137-2.714 1.141-4.873.003-2.159-.377-3.785-1.141-4.877a3.762 3.762 0 00-3.097-1.633 3.765 3.765 0 00-3.098 1.633c-.763 1.09-1.14 2.713-1.14 4.877 0 2.164.377 3.784 1.14 4.873a3.766 3.766 0 003.098 1.633 3.753 3.753 0 003.097-1.633z"/></svg>
